<?xml version="1.0" standalone="no"?>
<!DOCTYPE svg PUBLIC "-//W3C//DTD SVG 20010904//EN"
 "http://www.w3.org/TR/2001/REC-SVG-20010904/DTD/svg10.dtd">
<svg version="1.0" xmlns="http://www.w3.org/2000/svg"
 width="512.000000pt" height="512.000000pt" viewBox="0 0 512.000000 512.000000"
 preserveAspectRatio="xMidYMid meet">

<g transform="translate(0.000000,512.000000) scale(0.100000,-0.100000)"
fill="#000000" stroke="none">
<path d="M1975 5109 c-148 -21 -315 -85 -445 -171 -83 -54 -224 -194 -280
-277 -142 -212 -208 -468 -181 -707 29 -253 120 -449 294 -631 168 -175 377
-281 629 -317 l93 -14 -68 -1 c-147 -2 -358 -45 -532 -108 -383 -137 -733
-420 -944 -761 -170 -273 -257 -543 -283 -869 -14 -180 -6 -239 47 -349 59
-121 161 -209 300 -257 59 -21 75 -21 1114 -25 l1053 -3 -6 33 c-3 18 -9 97
-12 174 -8 163 9 290 56 435 78 238 242 466 445 617 93 69 265 156 375 189 50
14 90 30 90 33 0 12 -101 153 -167 231 -306 370 -803 627 -1267 656 l-101 7
105 18 c431 77 746 365 862 788 20 74 23 107 23 260 -1 196 -14 266 -81 421
-184 431 -655 695 -1119 628z"/>
<path d="M3875 1740 c-358 -56 -633 -305 -726 -657 -28 -106 -31 -287 -5 -397
108 -466 562 -763 1021 -667 187 39 316 109 450 245 210 213 295 495 236 783
-70 338 -325 599 -661 678 -84 19 -238 27 -315 15z m305 -525 l0 -155 160 0
160 0 0 -185 0 -184 -157 -3 -158 -3 -3 -157 -3 -158 -184 0 -185 0 0 160 0
160 -155 0 -155 0 0 185 0 185 155 0 155 0 0 155 0 155 185 0 185 0 0 -155z"/>
</g>
</svg>
